<?xml version="1.0" encoding="UTF-8"?>
<svg xmlns="http://www.w3.org/2000/svg" xmlns:xlink="http://www.w3.org/1999/xlink" width="14px" height="15px" viewBox="0 0 14 15" version="1.1">
    
    <title>Hint text Copy</title>
    <desc>Created with Sketch.</desc>
    <defs/>
    <g id="app" stroke="none" stroke-width="1" fill="none" fill-rule="evenodd">
        <g id="STATE---Ready---Login" transform="translate(-29.000000, -301.000000)" fill="#666666">
            <g id="card-1" transform="translate(8.000000, 176.000000)">
                <g id="text-field" transform="translate(15.000000, 111.000000)">
                    <path d="M10.2857143,20.8571429 L15.7142857,20.8571429 L15.7142857,18.8214286 C15.7142857,18.0721689 15.4492214,17.4324803 14.9190848,16.9023438 C14.3889482,16.3722072 13.7492597,16.1071429 13,16.1071429 C12.2507403,16.1071429 11.6110518,16.3722072 11.0809152,16.9023438 C10.5507786,17.4324803 10.2857143,18.0721689 10.2857143,18.8214286 L10.2857143,20.8571429 Z M19.1071429,21.875 L19.1071429,27.9821429 C19.1071429,28.2648824 19.0081855,28.5052073 18.8102679,28.703125 C18.6123502,28.9010427 18.3720252,29 18.0892857,29 L7.91071429,29 C7.62797478,29 7.3876498,28.9010427 7.18973214,28.703125 C6.99181449,28.5052073 6.89285714,28.2648824 6.89285714,27.9821429 L6.89285714,21.875 C6.89285714,21.5922605 6.99181449,21.3519355 7.18973214,21.1540179 C7.3876498,20.9561002 7.62797478,20.8571429 7.91071429,20.8571429 L8.25,20.8571429 L8.25,18.8214286 C8.25,17.5208268 8.71651319,16.4040225 9.64955357,15.4709821 C10.582594,14.5379418 11.6993983,14.0714286 13,14.0714286 C14.3006017,14.0714286 15.417406,14.5379418 16.3504464,15.4709821 C17.2834868,16.4040225 17.75,17.5208268 17.75,18.8214286 L17.75,20.8571429 L18.0892857,20.8571429 C18.3720252,20.8571429 18.6123502,20.9561002 18.8102679,21.1540179 C19.0081855,21.3519355 19.1071429,21.5922605 19.1071429,21.875 Z" id="Hint-text-Copy"/>
                </g>
            </g>
        </g>
    </g>
</svg>
