<?xml version="1.0" encoding="utf-8"?>
<!-- Generator: Adobe Illustrator 21.1.0, SVG Export Plug-In . SVG Version: 6.00 Build 0)  -->
<svg xmlns="http://www.w3.org/2000/svg" xmlns:xlink="http://www.w3.org/1999/xlink" version="1.1" id="Ebene_1" x="0px" y="0px" viewBox="0 0 20 20" style="enable-background:new 0 0 20 20;" xml:space="preserve">
<style type="text/css">
	.st0{enable-background:new    ;}
	.st1{fill:#666666;}
</style>
<title>Hint text Copy</title>
<desc>Created with Sketch.</desc>
<g id="Material-Design-Symbols">
	<g id="text-field-with-icon-left-8px-vertical-Raster" transform="translate(-3.000000, -12.000000)">
		<g id="text-field">
			<g class="st0">
				<path class="st1" d="M9.3,13.5c1.2-0.5,2.4-0.8,3.7-0.8c1.3,0,2.5,0.3,3.7,0.8s2.2,1.2,3,2c0.8,0.8,1.5,1.9,2,3      c0.5,1.2,0.8,2.4,0.8,3.7c0,1.3-0.2,2.5-0.7,3.7c-0.5,1.2-1.2,2.2-2,3c-0.8,0.8-1.9,1.5-3,2c-1.2,0.5-2.4,0.8-3.7,0.8      c-1.3,0-2.5-0.3-3.7-0.8c-1.2-0.5-2.2-1.2-3-2c-0.8-0.9-1.5-1.9-2-3c-0.5-1.2-0.8-2.4-0.8-3.7c0-1.3,0.3-2.5,0.8-3.7      c0.5-1.2,1.2-2.2,2-3C7.1,14.6,8.1,14,9.3,13.5z M19.6,27c1.1-1.4,1.6-3.1,1.6-4.8c0-1.1-0.2-2.2-0.6-3.2s-1-1.9-1.7-2.6      c-0.7-0.7-1.6-1.3-2.6-1.7c-1-0.4-2.1-0.6-3.2-0.6s-2.2,0.2-3.2,0.6c-1,0.4-1.9,1-2.6,1.7c-0.7,0.7-1.3,1.6-1.7,2.6      s-0.6,2.1-0.6,3.2c0,1.8,0.5,3.4,1.6,4.8c0.5-2.3,1.5-3.5,3.2-3.5c0.9,0.9,2,1.4,3.3,1.4c1.3,0,2.4-0.5,3.3-1.4      C18,23.6,19.1,24.7,19.6,27z M15.9,23.1c0.8-0.8,1.2-1.8,1.2-2.9s-0.4-2.1-1.2-2.9s-1.8-1.2-2.9-1.2s-2.1,0.4-2.9,1.2      c-0.8,0.8-1.2,1.8-1.2,2.9s0.4,2.1,1.2,2.9c0.8,0.8,1.8,1.2,2.9,1.2S15.1,23.9,15.9,23.1z"/>
			</g>
		</g>
	</g>
</g>
</svg>
